<?xml version="1.0" encoding="UTF-8"?>
<svg version="1.1" xmlns="http://www.w3.org/2000/svg" width="512" height="512">
<path d="M0 0 C1.34960223 -0.0037443 2.69920229 -0.00834891 4.04879898 -0.01373065 C7.72893658 -0.02588005 11.40898273 -0.02570977 15.08913577 -0.02334189 C19.06956969 -0.02293166 23.04997508 -0.03399254 27.03039551 -0.04345703 C34.81879618 -0.06002439 42.60716657 -0.06556467 50.3955834 -0.06668179 C56.73193684 -0.06763442 63.06828036 -0.07175545 69.40463066 -0.07808304 C87.39917345 -0.0956849 105.39369246 -0.10492372 123.38824392 -0.10342209 C124.84142306 -0.10330222 124.84142306 -0.10330222 126.32395935 -0.10317993 C127.77892866 -0.10305729 127.77892866 -0.10305729 129.26329129 -0.10293217 C144.97059887 -0.10211988 160.67781042 -0.12124588 176.38509024 -0.14945666 C192.54244953 -0.178245 208.69976207 -0.19199365 224.85714763 -0.19026911 C233.91646981 -0.1896072 242.97569135 -0.19501196 252.03499031 -0.21662521 C259.75053417 -0.23491565 267.46593179 -0.23912036 275.18148804 -0.22560637 C279.11088886 -0.21911571 283.04000976 -0.21881629 286.96938324 -0.23631287 C322.65040289 -0.38509575 351.02645688 6.87460014 377.47117615 32.01742554 C396.6847721 51.77824416 406.6821944 78.63852455 406.61360168 105.92124939 C406.61734599 107.27085162 406.62195059 108.62045168 406.62733233 109.97004837 C406.63948173 113.65018597 406.63931146 117.33023212 406.63694358 121.01038516 C406.63653335 124.99081908 406.64759422 128.97122447 406.65705872 132.9516449 C406.67362608 140.74004557 406.67916635 148.52841596 406.68028347 156.31683279 C406.68123611 162.65318623 406.68535713 168.98952975 406.69168472 175.32588005 C406.70928659 193.32042284 406.71852541 211.31494185 406.71702377 229.30949331 C406.71690391 230.76267245 406.71690391 230.76267245 406.71678162 232.24520874 C406.71669985 233.21518828 406.71661809 234.18516782 406.71653385 235.18454068 C406.71572157 250.89184826 406.73484757 266.59905981 406.76305835 282.30633963 C406.79184669 298.46369891 406.80559533 314.62101146 406.8038708 330.77839702 C406.80320888 339.8377192 406.80861364 348.89694074 406.8302269 357.9562397 C406.84851734 365.67178356 406.85272204 373.38718118 406.83920805 381.10273743 C406.8327174 385.03213825 406.83241797 388.96125915 406.84991455 392.89063263 C406.99869743 428.57165228 399.73900155 456.94770627 374.59617615 483.39242554 C354.83535753 502.60602149 327.97507714 512.60344379 300.69235229 512.53485107 C299.34275007 512.53859538 297.99315001 512.54319998 296.64355332 512.54858172 C292.96341572 512.56073112 289.28336957 512.56056085 285.60321653 512.55819297 C281.62278261 512.55778274 277.64237721 512.56884361 273.66195679 512.57830811 C265.87355611 512.59487547 258.08518572 512.60041574 250.2967689 512.60153286 C243.96041545 512.6024855 237.62407194 512.60660652 231.28772163 512.61293411 C213.29317884 512.63053598 195.29865984 512.6397748 177.30410837 512.63827316 C175.85092924 512.6381533 175.85092924 512.6381533 174.36839294 512.63803101 C172.91342363 512.63790836 172.91342363 512.63790836 171.429061 512.63778324 C155.72175342 512.63697096 140.01454188 512.65609696 124.30726206 512.68430774 C108.14990277 512.71309608 91.99259022 512.72684472 75.83520466 512.72512019 C66.77588248 512.72445827 57.71666095 512.72986303 48.65736198 512.75147629 C40.94181812 512.76976672 33.22642051 512.77397143 25.51086425 512.76045744 C21.58146343 512.75396679 17.65234253 512.75366736 13.72296906 512.77116394 C-21.9580506 512.91994682 -50.33410458 505.66025093 -76.77882385 480.51742554 C-95.9924198 460.75660692 -105.9898421 433.89632653 -105.92124939 406.61360168 C-105.92499369 405.26399946 -105.9295983 403.9143994 -105.93498003 402.56480271 C-105.94712944 398.88466511 -105.94695916 395.20461896 -105.94459128 391.52446592 C-105.94418105 387.544032 -105.95524193 383.5636266 -105.96470642 379.58320618 C-105.98127378 371.7948055 -105.98681406 364.00643511 -105.98793118 356.21801829 C-105.98888381 349.88166484 -105.99300484 343.54532133 -105.99933243 337.20897102 C-106.01693429 319.21442823 -106.02617311 301.21990923 -106.02467148 283.22535776 C-106.02459157 282.25657167 -106.02451166 281.28778558 -106.02442932 280.28964233 C-106.02434756 279.31966279 -106.0242658 278.34968325 -106.02418156 277.35031039 C-106.02336927 261.64300281 -106.04249527 245.93579127 -106.07070605 230.22851145 C-106.09949439 214.07115216 -106.11324304 197.91383961 -106.1115185 181.75645405 C-106.11085659 172.69713187 -106.11626134 163.63791034 -106.1378746 154.57861137 C-106.15616504 146.86306751 -106.16036975 139.1476699 -106.14685576 131.43211364 C-106.1403651 127.50271282 -106.14006568 123.57359192 -106.15756226 119.64421844 C-106.30634514 83.96319879 -99.04664925 55.58714481 -73.90382385 29.14242554 C-54.14300523 9.92882959 -27.28272484 -0.06859272 0 0 Z " fill="#0074FF" transform="translate(105.65382385253906,-0.267425537109375)"/>
<path d="M0 0 C1.12366738 -0.01043099 2.24733476 -0.02086198 3.40505266 -0.03160906 C4.63966722 -0.02268617 5.87428178 -0.01376328 7.1463089 -0.00457001 C8.45772464 -0.01080997 9.76914039 -0.01704993 11.120296 -0.02347898 C14.76358009 -0.04020937 18.40644619 -0.03190943 22.04973197 -0.01953411 C25.97754768 -0.01050097 29.90529042 -0.02444468 33.83309174 -0.0354538 C41.52889794 -0.05326225 49.22454831 -0.04938873 56.92036068 -0.03780323 C63.17358184 -0.02877831 69.42675925 -0.02754083 75.67998505 -0.0318985 C77.01377621 -0.0328179 77.01377621 -0.0328179 78.37451264 -0.03375587 C80.1807606 -0.03503474 81.98700853 -0.03633159 83.79325646 -0.03764623 C100.73982179 -0.04905884 117.68630064 -0.03592767 134.63285178 -0.01444477 C149.18120405 0.00342684 163.72942866 0.00032292 178.27777863 -0.01811981 C195.16272538 -0.03951452 212.0475963 -0.04796014 228.93255472 -0.03567076 C230.73224543 -0.03439653 232.53193616 -0.03313905 234.33162689 -0.0318985 C235.21716349 -0.0312814 236.10270009 -0.03066429 237.01507112 -0.03002849 C243.26248442 -0.02657139 249.5098497 -0.03241169 255.75725555 -0.04181671 C263.36835045 -0.05302254 270.9792803 -0.05002659 278.59035623 -0.02869374 C282.4754332 -0.01816412 286.36023475 -0.01409373 290.24530983 -0.02729034 C294.45221518 -0.04136427 298.65842203 -0.02458714 302.86530304 -0.00457001 C304.71722488 -0.01795434 304.71722488 -0.01795434 306.60655928 -0.03160906 C307.73022666 -0.02117807 308.85389403 -0.01074708 310.01161194 0 C311.46876389 0.00097411 311.46876389 0.00097411 312.95535326 0.00196791 C316.25490825 0.65063151 317.44883133 1.89392527 319.50580597 4.50336456 C320.01361465 7.27569199 320.01361465 7.27569199 320.0247879 10.52710724 C320.04565712 12.37805496 320.04565712 12.37805496 320.06694794 14.26639557 C320.06223502 15.63086833 320.05714108 16.99533981 320.05170441 18.35980988 C320.06043986 19.79881661 320.07092555 21.23781363 320.0830307 22.67679596 C320.11091524 26.58147039 320.11429486 30.48582826 320.11331081 34.39058781 C320.11643783 38.47193319 320.1420516 42.55313555 320.16529083 46.63440704 C320.20587063 54.36203599 320.22619616 62.08958051 320.23926473 69.8172996 C320.2551281 78.61536605 320.29354089 87.41328868 320.33385801 96.21127176 C320.41628401 114.30859058 320.47035922 132.40589583 320.50580597 150.50336456 C321.45624786 150.9651712 322.40668976 151.42697784 323.38593292 151.90277863 C324.65127482 152.52459708 325.91648601 153.14668157 327.18158722 153.76898956 C328.11799042 154.222659 328.11799042 154.222659 329.07331085 154.68549347 C334.88902208 157.55810812 339.70578562 161.13550039 344.50580597 165.50336456 C345.41072784 166.31547394 346.31564972 167.12758331 347.24799347 167.96430206 C362.1671174 182.05688173 373.62691095 202.66622837 374.50580597 223.50336456 C374.58314972 225.11404816 374.58314972 225.11404816 374.66205597 226.75727081 C375.32582106 253.28021761 365.46090866 275.73265793 347.44330597 295.00336456 C330.04249109 311.81029498 308.34314527 318.9204052 284.49799347 318.80219269 C261.10110809 318.31823429 241.22079276 309.36995387 224.17377472 293.33148956 C217.65063994 286.41677568 212.56922425 278.76811835 208.35663605 270.26068878 C207.82129745 269.1819751 207.28595886 268.10326141 206.73439789 266.99185944 C206.12624489 265.76005447 206.12624489 265.76005447 205.50580597 264.50336456 C204.42205563 264.5028198 203.33830528 264.50227503 202.22171402 264.50171375 C175.87442342 264.48733029 149.52729826 264.44436333 123.1801033 264.37127399 C110.43887917 264.33659329 97.69776358 264.31126443 84.95648956 264.30780792 C73.85360828 264.30477232 62.75092014 264.28433621 51.64811349 264.24283999 C45.76701908 264.22147173 39.88619953 264.20892909 34.00506592 264.21721077 C28.47280424 264.22472658 22.94110059 264.2090286 17.40894127 264.17530441 C15.37559084 264.16704132 13.34218523 264.16735606 11.3088398 264.17676735 C8.53762912 264.18832684 5.76826642 264.16936734 2.99720001 264.14260101 C2.18786129 264.15327427 1.37852256 264.16394753 0.54465842 264.17494422 C-3.03356705 264.11022145 -5.11715776 263.79023867 -7.99316025 261.60198593 C-10.15856149 257.1318943 -10.04724067 253.19538053 -10.0021286 248.28618622 C-10.00836856 247.24751406 -10.01460853 246.2088419 -10.02103758 245.13869482 C-10.03701109 241.65316929 -10.02434579 238.16833883 -10.01177216 234.68280792 C-10.01719128 232.18612509 -10.02431275 229.68944546 -10.03301239 227.19277191 C-10.04937557 221.11265246 -10.04695709 215.03280651 -10.03536183 208.95269769 C-10.02632932 204.01194953 -10.0251027 199.07125674 -10.02945709 194.1305027 C-10.03007002 193.42739329 -10.03068296 192.72428387 -10.03131446 191.99986811 C-10.03259336 190.57154069 -10.03389021 189.14321329 -10.03520483 187.7148859 C-10.04661096 174.32163699 -10.033496 160.92849759 -10.01200336 147.53526665 C-9.99412842 136.04044694 -9.99723962 124.54578878 -10.01567841 113.05097198 C-10.03707785 99.70420009 -10.04551643 86.35752414 -10.03322935 73.01073748 C-10.03195514 71.58796189 -10.03069766 70.16518628 -10.02945709 68.74241066 C-10.02853144 67.69234133 -10.02853144 67.69234133 -10.02758709 66.62105848 C-10.02413169 61.68508987 -10.02996651 56.74918207 -10.03937531 51.81322289 C-10.05175603 45.17215635 -10.04295917 38.5313483 -10.01979828 31.89029503 C-10.0144964 29.44895181 -10.01605006 27.00758297 -10.02484894 24.56624985 C-10.03572905 21.24166862 -10.02213113 17.91807691 -10.0021286 14.59355927 C-10.01105149 13.62032036 -10.01997437 12.64708146 -10.02916765 11.64435047 C-10.01352117 10.30985571 -10.01352117 10.30985571 -9.99755859 8.94840145 C-9.99690918 8.18103898 -9.99625978 7.41367652 -9.99559069 6.62306064 C-8.7252682 1.25266663 -5.05897269 0.00338195 0 0 Z " fill="#FBFCFF" transform="translate(73.49419403076172,96.49663543701172)"/>
<path d="M0 0 C5.3050883 3.97881623 10.50734638 7.98433236 15.625 12.1875 C20.68795128 16.32573286 25.77872751 20.41939441 30.9375 24.4375 C36.94308392 29.12047685 42.81850897 33.95082142 48.68334961 38.80834961 C53.07401729 42.43688987 57.50506644 46.0016337 62 49.5 C67.24114244 53.57913396 72.38520527 57.76361318 77.5 62 C83.30814126 66.8104999 89.17221941 71.5329416 95.11767578 76.17236328 C99.47440345 79.57515461 103.76517612 83.05120943 108.03515625 86.5625 C117.38001099 94.24522642 126.76150003 101.878494 136.30786133 109.31005859 C140.80055884 112.81325638 140.80055884 112.81325638 142.51855469 114.421875 C144.9891845 116.70492292 146.67397659 117.93775917 150.0078125 118.57421875 C153.88807563 117.82957295 155.81757695 116.31005727 158.875 113.8125 C159.42454346 113.3705127 159.97408691 112.92852539 160.5402832 112.47314453 C162.37136039 110.99532573 164.18504594 109.49755947 166 108 C167.34905106 106.90605901 168.69934263 105.81364631 170.05078125 104.72265625 C172.80423214 102.49691213 175.55140265 100.26380382 178.29296875 98.0234375 C181.1812421 95.66433009 184.08311114 93.32370642 187 91 C190.57870273 88.14784598 194.13243303 85.2665989 197.67944336 82.37524414 C203.39249483 77.71844367 209.12423268 73.09372526 214.9375 68.5625 C220.93839292 63.88280195 226.80963399 59.05641518 232.67016602 54.20263672 C237.75887383 49.99738913 242.91349234 45.88862044 248.11767578 41.82763672 C252.47440345 38.42484539 256.76517612 34.94879057 261.03515625 31.4375 C269.81743946 24.21728298 278.63279983 17.03743395 287.5625 10 C288.10946533 9.56768066 288.65643066 9.13536133 289.2199707 8.68994141 C293.07426511 5.66615638 297.00367126 2.85452053 301 0 C301 40.92 301 81.84 301 124 C289.78 124 278.56 124 267 124 C260.62293016 125.29208605 255.68606037 126.34256164 250 129 C249.29149902 129.32178223 248.58299805 129.64356445 247.85302734 129.97509766 C225.26605835 140.47119296 209.5720378 157.3228324 200.25390625 180.50390625 C194.67688911 196.05353348 194.67982694 212.7587886 197 229 C131.99 229 66.98 229 0 229 C0 153.43 0 77.86 0 0 Z " fill="#0174FF" transform="translate(78,118)"/>
<path d="M0 0 C1.06734375 0.35191406 2.1346875 0.70382812 3.234375 1.06640625 C22.72968186 7.99959637 37.90962592 21.69953962 46.875 40.375 C54.90548397 58.18388542 55.62951307 77.76921804 48.78271484 96.02294922 C41.10195068 115.4237066 28.19330542 129.73039713 9.26953125 138.59765625 C-8.2524683 146.11306585 -30.15062895 147.13164428 -48 140 C-66.23646948 132.3716729 -81.34456065 117.96303567 -89.0078125 99.59765625 C-96.78296714 79.24144431 -96.16373227 58.41145939 -87.49609375 38.5546875 C-79.14995985 21.54064104 -63.41383607 7.4545067 -45.66796875 0.87890625 C-30.66584517 -4.06322816 -15.10311638 -5.13753549 0 0 Z " fill="#0275FF" transform="translate(381,257)"/>
<path d="M0 0 C90.75 0 181.5 0 275 0 C271.44330826 3.55669174 267.89994125 6.90147858 264.0625 10.125 C263.49893799 10.60018066 262.93537598 11.07536133 262.35473633 11.56494141 C257.79191662 15.38775929 253.13420307 19.07886774 248.43920898 22.73730469 C243.95877674 26.23212792 239.53096896 29.78681573 235.125 33.375 C234.45895752 33.91737305 233.79291504 34.45974609 233.10668945 35.01855469 C231.07041114 36.67816195 229.03503387 38.33886709 227 40 C218.84041034 46.66041147 210.66466345 53.28860727 202.35888672 59.76611328 C196.93586866 64.01360837 191.6346821 68.40381037 186.32983398 72.79736328 C181.24112617 77.00261087 176.08650766 81.11137956 170.88232422 85.17236328 C167.43064821 87.86827042 164.0120732 90.59780159 160.625 93.375 C159.32755859 94.43460938 159.32755859 94.43460938 158.00390625 95.515625 C155.61988038 97.4873291 153.25834231 99.47959125 150.90234375 101.484375 C149.45585814 102.69807039 148.00924385 103.91161244 146.5625 105.125 C145.87559082 105.71845215 145.18868164 106.3119043 144.48095703 106.92333984 C143.82853027 107.46684082 143.17610352 108.0103418 142.50390625 108.5703125 C141.63487671 109.30918701 141.63487671 109.30918701 140.74829102 110.06298828 C139 111 139 111 136.95239258 110.78417969 C133.85938143 109.54186985 131.58484064 107.31359214 129.125 105.125 C127.95884478 104.11249082 126.79081571 103.10213652 125.62109375 102.09375 C125.02151855 101.57683594 124.42194336 101.05992187 123.80419922 100.52734375 C120.99303981 98.14755846 118.09631633 95.88358592 115.1875 93.625 C109.28902125 89.0338818 103.4740057 84.34811158 97.68041992 79.62548828 C94.13303978 76.73394443 90.5790205 73.85240728 87 71 C83.42129727 68.14784598 79.86756697 65.2665989 76.32055664 62.37524414 C70.60750517 57.71844367 64.87576732 53.09372526 59.0625 48.5625 C53.06160708 43.88280195 47.19036601 39.05641518 41.32983398 34.20263672 C36.24555073 30.00104554 31.09620115 25.89478209 25.89550781 21.83862305 C21.41494901 18.3405404 17.00671338 14.76120123 12.62109375 11.14453125 C9.05257418 8.22483342 5.42954849 5.37557144 1.80078125 2.53125 C1.20652344 2.0259375 0.61226563 1.520625 0 1 C0 0.67 0 0.34 0 0 Z " fill="#0275FF" transform="translate(91,110)"/>
<path d="M0 0 C1.10794922 -0.01260864 2.21589844 -0.02521729 3.35742188 -0.03820801 C4.54916016 -0.03011108 5.74089844 -0.02201416 6.96875 -0.01367188 C8.19658203 -0.01749878 9.42441406 -0.02132568 10.68945312 -0.02526855 C13.28516459 -0.02799029 15.88090336 -0.02061099 18.4765625 -0.00390625 C22.45374599 0.01749738 26.42912282 -0.0037015 30.40625 -0.02929688 C32.92708733 -0.02665365 35.44792353 -0.02152878 37.96875 -0.01367188 C39.16048828 -0.0217688 40.35222656 -0.02986572 41.58007812 -0.03820801 C43.24200195 -0.01929504 43.24200195 -0.01929504 44.9375 0 C45.91138672 0.00318237 46.88527344 0.00636475 47.88867188 0.00964355 C51.28260581 0.67780021 52.44476269 1.73628603 54.46875 4.51757812 C54.9834137 7.13562012 54.9834137 7.13562012 55.00219727 10.140625 C55.0180336 11.26859497 55.03386993 12.39656494 55.05018616 13.55871582 C55.04522629 14.77232788 55.04026642 15.98593994 55.03515625 17.23632812 C55.04135483 18.4863562 55.04755341 19.73638428 55.05393982 21.02429199 C55.06104504 23.66764156 55.05979584 26.30947046 55.04516602 28.95263672 C55.02797018 32.33594324 55.05148289 35.71755269 55.08665562 39.10066986 C55.11392209 42.33340975 55.10389405 45.56600567 55.09765625 48.79882812 C55.11091446 50.01244019 55.12417267 51.22605225 55.13783264 52.47644043 C55.04734082 60.62063152 55.04734082 60.62063152 52.68725586 64.27929688 C47.61650805 66.23020584 42.73170055 66.08710672 37.34375 66.04882812 C35.57427002 66.05456848 35.57427002 66.05456848 33.76904297 66.0604248 C31.27766058 66.06314393 28.78624964 66.05578282 26.29492188 66.0390625 C22.48242518 66.01765491 18.67181311 66.03886629 14.859375 66.06445312 C12.43749584 66.06180985 10.01561786 66.05668489 7.59375 66.04882812 C6.45405762 66.05692505 5.31436523 66.06502197 4.14013672 66.07336426 C-0.18715206 66.02211402 -3.6938483 65.83975831 -7.74975586 64.27929688 C-10.82255918 59.5157569 -10.22061994 54.33347139 -10.16015625 48.79882812 C-10.16256821 47.54880005 -10.16498016 46.29877197 -10.16746521 45.01086426 C-10.16648542 42.36720792 -10.15565493 39.72581128 -10.12817383 37.08251953 C-10.09408889 33.69936036 -10.10011034 30.31771821 -10.1188364 26.93448639 C-10.13196326 23.70167891 -10.11368677 20.46910284 -10.09765625 17.23632812 C-10.10261612 16.02271606 -10.10757599 14.809104 -10.11268616 13.55871582 C-10.09684982 12.43074585 -10.08101349 11.30277588 -10.06469727 10.140625 C-10.05849869 9.14897339 -10.05230011 8.15732178 -10.0459137 7.13562012 C-8.92103993 1.41350141 -5.42880151 0.01773971 0 0 Z " fill="#FBFCFF" transform="translate(325.53125,307.482421875)"/>
<path d="M0 0 C1.18480453 -0.01583633 2.36960907 -0.03167267 3.59031677 -0.04798889 C4.86641312 -0.04302902 6.14250946 -0.03806915 7.45727539 -0.03295898 C9.4286422 -0.04225685 9.4286422 -0.04225685 11.43983459 -0.05174255 C14.21983368 -0.06214175 16.99932077 -0.05759372 19.77929688 -0.04296875 C23.33510976 -0.02578993 26.88930533 -0.04926373 30.44493771 -0.08445835 C33.84497832 -0.11175287 37.2446303 -0.10169453 40.64477539 -0.09545898 C41.9188475 -0.10871719 43.19291962 -0.1219754 44.50559998 -0.13563538 C49.39474137 -0.08405424 53.03631457 -0.02322526 57.41796875 2.23291016 C60.19540619 7.62698813 59.82909558 12.99353243 59.78149414 18.97094727 C59.78627777 20.28377686 59.7910614 21.59660645 59.79598999 22.94921875 C59.8033465 25.72336354 59.79269751 28.49670128 59.76928711 31.27075195 C59.74079736 34.81874325 59.75720828 38.36484353 59.78714943 41.9127655 C59.80960869 45.30730922 59.79386322 48.70134988 59.78149414 52.09594727 C59.79667587 54.00234985 59.79667587 54.00234985 59.81216431 55.94726562 C59.6819222 65.73747729 59.6819222 65.73747729 56.77124023 68.86938477 C54.11743164 70.53344727 54.11743164 70.53344727 50.99243164 70.59594727 C47.67166206 69.36870633 46.8995622 68.52834602 45.11743164 65.53344727 C44.75666809 63.11627197 44.75666809 63.11627197 44.77685547 60.39770508 C44.77719536 58.86657074 44.77719536 58.86657074 44.77754211 57.30450439 C44.79302597 56.20958679 44.80850983 55.11466919 44.82446289 53.98657227 C44.82870773 52.86023376 44.83295258 51.73389526 44.83732605 50.57342529 C44.85411667 46.97652264 44.89177065 43.38018054 44.92993164 39.78344727 C44.94497793 37.34465327 44.95866643 34.9058505 44.97094727 32.46704102 C45.00402149 26.48898522 45.05422521 20.51125629 45.11743164 14.53344727 C44.47263351 14.5401091 43.82783539 14.54677094 43.16349792 14.55363464 C36.46419247 14.61990525 29.76497983 14.66521344 23.06542969 14.69824219 C20.56376362 14.71334671 18.06212411 14.73383156 15.56054688 14.75976562 C11.9687648 14.79607502 8.37733223 14.81315701 4.78540039 14.82641602 C3.66344772 14.84189987 2.54149506 14.85738373 1.38554382 14.87333679 C-0.17573494 14.87367668 -0.17573494 14.87367668 -1.76855469 14.87402344 C-2.68566727 14.88068527 -3.60277985 14.88734711 -4.54768372 14.89421082 C-6.88256836 14.53344727 -6.88256836 14.53344727 -8.67485046 13.227005 C-10.72276951 10.35525063 -10.29947436 7.92825329 -9.88256836 4.53344727 C-6.91921115 0.6244334 -4.81571207 0.0286493 0 0 Z " fill="#F9FBFF" transform="translate(345.882568359375,282.466552734375)"/>
<path d="M0 0 C12.54 0 25.08 0 38 0 C38 12.21 38 24.42 38 37 C25.46 37 12.92 37 0 37 C0 24.79 0 12.58 0 0 Z " fill="#0878FF" transform="translate(329,322)"/>
</svg>
