<?xml version="1.0" encoding="UTF-8"?>
<svg version="1.1" xmlns="http://www.w3.org/2000/svg" width="512" height="512">
<path d="M0 0 C1.45108658 0.00273422 1.45108658 0.00273422 2.93148804 0.00552368 C17.26440977 0.05095174 31.21023917 0.55983928 45.3125 3.3125 C46.65803955 3.55395752 46.65803955 3.55395752 48.03076172 3.80029297 C107.84088904 14.62287989 165.35495829 48.68064457 202.3125 97.3125 C202.72918945 97.85277832 203.14587891 98.39305664 203.57519531 98.94970703 C211.2584873 108.9447116 218.00092968 119.40459036 224.3125 130.3125 C224.70679199 130.98974121 225.10108398 131.66698242 225.50732422 132.36474609 C238.68961173 155.2833756 247.29510918 180.85822563 252.625 206.6875 C252.77243652 207.39817627 252.91987305 208.10885254 253.07177734 208.84106445 C256.05713787 224.48358366 256.6873098 240.11919606 256.625 256 C256.62226578 257.45108658 256.62226578 257.45108658 256.61947632 258.93148804 C256.57404826 273.26440977 256.06516072 287.21023917 253.3125 301.3125 C253.15152832 302.20952637 252.99055664 303.10655273 252.82470703 304.03076172 C242.00212011 363.84088904 207.94435543 421.35495829 159.3125 458.3125 C158.77222168 458.72918945 158.23194336 459.14587891 157.67529297 459.57519531 C147.6802884 467.2584873 137.22040964 474.00092968 126.3125 480.3125 C125.63525879 480.70679199 124.95801758 481.10108398 124.26025391 481.50732422 C101.3416244 494.68961173 75.76677437 503.29510918 49.9375 508.625 C49.22682373 508.77243652 48.51614746 508.91987305 47.78393555 509.07177734 C32.14141634 512.05713787 16.50580394 512.6873098 0.625 512.625 C-0.34239105 512.62317719 -1.3097821 512.62135437 -2.30648804 512.61947632 C-16.63940977 512.57404826 -30.58523917 512.06516072 -44.6875 509.3125 C-45.58452637 509.15152832 -46.48155273 508.99055664 -47.40576172 508.82470703 C-107.21588904 498.00212011 -164.72995829 463.94435543 -201.6875 415.3125 C-202.10418945 414.77222168 -202.52087891 414.23194336 -202.95019531 413.67529297 C-210.6334873 403.6802884 -217.37592968 393.22040964 -223.6875 382.3125 C-224.08179199 381.63525879 -224.47608398 380.95801758 -224.88232422 380.26025391 C-238.06461173 357.3416244 -246.67010918 331.76677437 -252 305.9375 C-252.14743652 305.22682373 -252.29487305 304.51614746 -252.44677734 303.78393555 C-255.43213787 288.14141634 -256.0623098 272.50580394 -256 256.625 C-255.99817719 255.65760895 -255.99635437 254.6902179 -255.99447632 253.69351196 C-255.94904826 239.36059023 -255.44016072 225.41476083 -252.6875 211.3125 C-252.44604248 209.96696045 -252.44604248 209.96696045 -252.19970703 208.59423828 C-241.37712011 148.78411096 -207.31935543 91.27004171 -158.6875 54.3125 C-158.14722168 53.89581055 -157.60694336 53.47912109 -157.05029297 53.04980469 C-147.0552884 45.3665127 -136.59540964 38.62407032 -125.6875 32.3125 C-125.01025879 31.91820801 -124.33301758 31.52391602 -123.63525391 31.11767578 C-100.7166244 17.93538827 -75.14177437 9.32989082 -49.3125 4 C-48.60182373 3.85256348 -47.89114746 3.70512695 -47.15893555 3.55322266 C-31.51641634 0.56786213 -15.88080394 -0.0623098 0 0 Z " fill="#2196F3" transform="translate(255.6875,-0.3125)"/>
<path d="M0 0 C0.64428955 -0.0049649 1.2885791 -0.00992981 1.95239258 -0.01504517 C4.08244906 -0.02964143 6.21243103 -0.03646496 8.3425293 -0.04199219 C9.82602439 -0.04774628 11.30951946 -0.05350399 12.79301453 -0.05926514 C15.90416815 -0.06976829 19.01529599 -0.07561525 22.12646484 -0.07910156 C26.10437697 -0.08458106 30.08194592 -0.10860001 34.05975056 -0.13707352 C37.12504558 -0.15573989 40.19025865 -0.16090764 43.2556057 -0.16243744 C44.72156841 -0.16545612 46.18752995 -0.17345812 47.65343666 -0.18662262 C49.70932384 -0.20376563 51.76438195 -0.2017833 53.8203125 -0.1953125 C54.98818802 -0.19895813 56.15606354 -0.20260376 57.35932922 -0.20635986 C61.67594312 0.28250414 65.05789726 1.71762721 68.2487793 4.69628906 C71.46199391 8.8981851 72.7070987 11.11054495 73.03393555 16.34082031 C73.10491455 17.40421631 73.17589355 18.4676123 73.24902344 19.56323242 C73.32499756 20.70928955 73.40097168 21.85534668 73.47924805 23.03613281 C75.24333169 46.63618878 79.07715648 68.44901659 89.3581543 90.07519531 C92.09249148 95.94200703 92.57240377 100.76002555 91.60424805 107.16113281 C87.19138363 117.99270911 70.60018775 122.59222302 60.60424805 127.16113281 C66.72886346 141.43020461 77.00259799 153.95307673 87.60424805 165.16113281 C88.79772511 166.53094803 89.98548029 167.90577498 91.16674805 169.28613281 C97.99981333 177.08864901 105.4752192 183.73054757 113.60424805 190.16113281 C114.61616211 190.97839844 115.62807617 191.79566406 116.6706543 192.63769531 C124.55308742 198.92513501 132.86035049 204.15425371 141.60424805 209.16113281 C143.84708242 206.35466686 145.42477553 203.63526334 146.8737793 200.35253906 C147.49542969 198.98452148 147.49542969 198.98452148 148.12963867 197.58886719 C148.98429188 195.68632354 149.83072884 193.78006661 150.66870117 191.87011719 C153.57435207 185.52603812 156.19877914 181.36386726 162.60424805 178.16113281 C171.1273758 176.49094414 177.81959568 179.63714902 185.41381836 183.02514648 C192.34151013 186.1117756 199.24638588 188.30705177 206.60424805 190.16113281 C208.47790039 190.68320312 208.47790039 190.68320312 210.3894043 191.21582031 C221.88087293 194.36555594 233.41570996 195.85244385 245.3112793 196.39550781 C246.07384033 196.43135986 246.83640137 196.46721191 247.62207031 196.50415039 C249.0634307 196.56515952 250.50544584 196.61283386 251.94775391 196.64428711 C257.23758624 196.84536451 261.32800475 198.03627862 265.2487793 201.69628906 C268.89355112 206.46252914 269.73092022 208.55211851 269.76538086 214.53515625 C269.77034576 215.18905334 269.77531067 215.84295044 269.78042603 216.5166626 C269.79505553 218.68462165 269.80185211 220.85250746 269.80737305 223.02050781 C269.81312535 224.5278524 269.81888308 226.03519696 269.824646 227.5425415 C269.83515925 230.70674989 269.84099929 233.87093285 269.84448242 237.03515625 C269.84995755 241.08147606 269.87396285 245.12745773 269.90245438 249.17367172 C269.92112146 252.28958094 269.92628859 255.40540953 269.9278183 258.52136993 C269.9308379 260.01245211 269.93884304 261.50353309 269.95200348 262.99456024 C269.96914435 265.08647471 269.96716438 267.17757419 269.96069336 269.26953125 C269.96433899 270.45818787 269.96798462 271.64684448 269.97174072 272.871521 C269.4876255 277.20507993 268.0547254 280.57089593 265.10424805 283.80566406 C261.05649426 286.95743069 258.30004197 288.28653658 253.2097168 288.29394531 C252.34443359 288.29620117 251.47915039 288.29845703 250.58764648 288.30078125 C249.665 288.29594727 248.74235352 288.29111328 247.79174805 288.28613281 C246.836875 288.28129883 245.88200195 288.27646484 244.89819336 288.27148438 C206.62473289 287.94833797 168.88270285 278.04594141 134.60424805 261.16113281 C133.82710449 260.78408203 133.04996094 260.40703125 132.24926758 260.01855469 C113.66179828 250.92673234 96.50426581 239.37716309 80.60424805 226.16113281 C80.03689941 225.69529785 79.46955078 225.22946289 78.88500977 224.74951172 C65.8647325 214.02799686 54.02779022 202.44216327 43.60424805 189.16113281 C42.66416074 188.01964625 41.72128611 186.8804514 40.77612305 185.74316406 C10.10686335 148.60833181 -9.70482511 101.75719171 -16.39575195 54.16113281 C-16.49871582 53.43716309 -16.60167969 52.71319336 -16.70776367 51.96728516 C-18.03135454 42.27558896 -18.60671386 32.6288439 -18.70825195 22.84863281 C-18.725896 21.87587402 -18.74354004 20.90311523 -18.76171875 19.90087891 C-18.75582762 13.77945755 -18.19632098 9.23154833 -13.89575195 4.51660156 C-9.06731313 0.75695779 -6.03248153 0.03534123 0 0 Z " fill="#F9F9F9" transform="translate(130.395751953125,111.8388671875)"/>
</svg>
